<?xml version="1.0" encoding="UTF-8" standalone="no"?>
<!-- Created with Inkscape (http://www.inkscape.org/) -->

<svg
   width="57.443497mm"
   height="20.325464mm"
   viewBox="0 0 57.443497 20.325464"
   version="1.1"
   id="svg1"
   xml:space="preserve"
   inkscape:version="1.3.1 (91b66b0783, 2023-11-16)"
   sodipodi:docname="logo-lh.svg"
   inkscape:export-filename="logo-lh.svg"
   inkscape:export-xdpi="96"
   inkscape:export-ydpi="96"
   xmlns:inkscape="http://www.inkscape.org/namespaces/inkscape"
   xmlns:sodipodi="http://sodipodi.sourceforge.net/DTD/sodipodi-0.dtd"
   xmlns="http://www.w3.org/2000/svg"
   xmlns:svg="http://www.w3.org/2000/svg"><sodipodi:namedview
     id="namedview1"
     pagecolor="#ffffff"
     bordercolor="#000000"
     borderopacity="0.25"
     inkscape:showpageshadow="2"
     inkscape:pageopacity="0.0"
     inkscape:pagecheckerboard="0"
     inkscape:deskcolor="#d1d1d1"
     inkscape:document-units="mm"
     showborder="false"
     inkscape:zoom="1.5488189"
     inkscape:cx="474.55516"
     inkscape:cy="578.82817"
     inkscape:window-width="1920"
     inkscape:window-height="974"
     inkscape:window-x="-11"
     inkscape:window-y="-11"
     inkscape:window-maximized="1"
     inkscape:current-layer="layer1" /><defs
     id="defs1" /><g
     inkscape:label="Layer 1"
     inkscape:groupmode="layer"
     id="layer1"
     transform="translate(-66.806276,-121.16678)"><g
       id="g14"><path
         style="fill:#d8dce1"
         d="m 104.46297,141.39264 -1.27648,0.0996 -0.85469,-0.3862 -0.85468,-0.38621 -0.53339,-0.87486 -0.53339,-0.87486 -9.9e-4,-3.37343 -9.9e-4,-3.37344 h 1.19063 1.19062 v 3.0017 3.0017 l 0.53718,0.48614 0.53718,0.48614 0.71959,-0.25263 0.71959,-0.25263 0.0743,-3.23521 0.0743,-3.23521 h 1.31477 1.31478 l -4.1e-4,3.10885 -4.2e-4,3.10886 -0.4626,0.90723 -0.46261,0.90723 -0.7079,0.51878 -0.70789,0.51877 z m 8.45545,0.0906 -0.7361,-4.1e-4 -0.92077,-0.46261 -0.92077,-0.46261 -0.60058,-0.89902 -0.60059,-0.89902 v -2.20983 -2.20984 h 1.32292 1.32291 v 1.81108 1.81108 l 0.50716,0.45897 0.50716,0.45897 0.55117,-0.29498 0.55118,-0.29498 v -1.8071 -1.80709 l -0.58247,-0.76328 -0.58248,-0.76329 -1.35473,-1.48549 -1.35474,-1.48549 -0.44404,-0.93575 -0.44404,-0.93574 v -2.15597 -2.15596 l 0.39288,-0.75976 0.39289,-0.75975 0.81531,-0.58055 0.81531,-0.58056 h 1.27899 1.27899 l 0.78424,0.46327 0.78425,0.46327 0.48333,0.81821 0.48334,0.81822 0.11487,2.18863 0.11488,2.18863 h -1.48839 -1.48839 v -1.79917 -1.79917 l -0.3175,-0.3175 -0.3175,-0.3175 h -0.46694 -0.46694 l -0.27389,0.51178 -0.2739,0.51177 v 1.28144 1.28144 l 0.4474,0.65418 0.44739,0.65419 1.51212,1.66477 1.51211,1.66477 0.48778,0.98106 0.48778,0.98106 1.1e-4,2.38125 1.1e-4,2.38125 -0.63465,0.88983 -0.63464,0.88983 -0.87821,0.36694 -0.87822,0.36694 z M 70.510443,141.21911 H 67.86461 l -0.529167,-0.52917 -0.529167,-0.52916 v -9.39271 -9.39271 h 1.455209 1.455208 v 8.59896 8.59896 h 1.719792 1.719792 v 1.32291 1.32292 z m 4.921117,0 h -1.21695 v -4.49792 -4.49791 h 1.395627 1.395627 l 1.18406,2.38502 1.184061,2.38502 -0.09247,-2.38502 -0.09247,-2.38502 h 1.349243 1.349242 v 4.49791 4.49792 h -1.4514 -1.4514 l -0.800975,-1.58672 -0.800976,-1.58673 -0.459604,-0.75645 -0.459604,-0.75645 0.09247,2.34318 0.09247,2.34317 z m 4.207008,-3.70417 h 0.132292 v -0.13229 -0.13229 h -0.132292 -0.132291 v 0.13229 0.13229 z m 4.630209,3.70417 H 82.94586 v -9.92187 -9.92188 h 1.314773 1.314773 l 0.07429,3.21154 0.07429,3.21154 1.156852,-3.21154 1.156853,-3.21154 h 1.418974 1.418975 l -0.551476,1.38906 -0.551476,1.38907 -1.179489,3.04159 -1.179489,3.0416 0.277938,1.05945 0.277937,1.05944 1.429706,4.43177 1.429706,4.43177 h -1.413121 -1.41312 l -1.198101,-3.63802 -1.198101,-3.63802 -0.0074,3.63802 -0.0074,3.63802 z m 8.73125,0 H 91.67711 v -9.92187 -9.92188 h 1.322917 1.322917 v 4.36563 4.36562 h 1.058333 1.058333 v -4.36562 -4.36563 h 1.455209 1.455208 v 9.92188 9.92187 H 97.894819 96.43961 v -4.23333 -4.23334 h -1.058333 -1.058333 v 4.23334 4.23333 z m 28.498213,0 h -2.75162 l -0.43788,-0.48385 -0.43788,-0.48386 v -9.43802 -9.43802 h 3.175 3.175 v 1.32292 1.32291 h -1.85208 -1.85209 v 3.04271 3.04271 h 1.45521 1.45521 v 1.32292 1.32291 h -1.45521 -1.45521 v 2.89833 2.89833 l 1.78594,0.0782 1.78594,0.0782 0.0806,1.25677 0.0806,1.25677 z M 78.051068,130.63578 H 74.21461 v -1.19063 -1.19062 h 1.190625 1.190625 v -2.24896 -2.24896 H 75.405235 74.21461 v -1.19062 -1.19063 h 3.836458 3.836459 v 1.19063 1.19062 H 80.56461 79.241693 v 2.24896 2.24896 h 1.322917 1.322917 v 1.19062 1.19063 z m 26.220772,-0.0168 -1.34994,-0.0168 -0.55074,-0.2228 -0.55075,-0.2228 -0.70603,-0.83907 -0.70602,-0.83906 v -2.38627 -2.38627 l 0.43274,-0.73257 0.43273,-0.73256 0.78502,-0.46372 0.78501,-0.46372 1.22965,-0.017 1.22964,-0.017 0.76996,0.37874 0.76995,0.37874 0.52543,0.71013 0.52543,0.71013 0.11676,1.93571 0.11676,1.9357 -0.35381,1.04866 -0.35381,1.04866 -0.89902,0.60498 -0.89903,0.60499 z m -0.20292,-2.36448 h 0.73152 l 0.3175,-0.3175 0.3175,-0.3175 v -1.61396 -1.61396 l -0.3175,-0.3175 -0.3175,-0.3175 h -0.73152 -0.73152 l -0.2739,0.51177 -0.27389,0.51178 v 1.22541 1.22541 l 0.27389,0.51178 0.2739,0.51177 z"
         id="path27" /><path
         style="fill:#c5cbd9"
         d="m 104.24482,141.47747 -0.79375,-0.005 -1.10693,-0.50256 -1.10694,-0.50256 -0.41442,-0.80141 -0.41442,-0.8014 v -3.32043 -3.32043 h 1.19063 1.19062 v 3.02381 3.02381 l 0.41577,0.41577 0.41578,0.41577 h 0.58964 0.58964 l 0.3175,-0.3175 0.3175,-0.3175 v -3.12208 -3.12208 h 1.34949 1.34949 l -0.0927,3.42052 -0.0927,3.42052 -0.54798,0.74666 -0.54797,0.74667 -0.90724,0.46261 -0.90723,0.46261 z m 8.69522,0.006 -0.75772,-4.1e-4 -0.90723,-0.46261 -0.90724,-0.46261 -0.54797,-0.74656 -0.54798,-0.74655 -0.0925,-2.3623 -0.0925,-2.3623 h 1.34924 1.34924 v 1.83319 1.83318 l 0.41578,0.41578 0.41577,0.41577 h 0.32506 0.32506 l 0.3175,-0.3175 0.3175,-0.3175 v -1.74029 -1.7403 l -0.44548,-0.65418 -0.44547,-0.65419 -1.41177,-1.54201 -1.41177,-1.542 -0.524,-1.02714 -0.52401,-1.02714 v -2.06519 -2.06519 l 0.49294,-0.92191 0.49295,-0.92192 0.82602,-0.48507 0.82602,-0.48507 h 1.2245 1.2245 l 0.96227,0.77528 0.96226,0.77528 0.34193,1.02159 0.34192,1.02158 -0.0773,1.59862 -0.0773,1.59863 h -1.32292 -1.32292 l -0.13229,-1.98438 -0.13229,-1.98437 -0.60988,-0.0865 -0.60987,-0.0865 -0.38231,0.31729 -0.38232,0.31729 v 1.44021 1.44021 l 0.30638,0.57791 0.30637,0.57792 1.43739,1.5875 1.4374,1.5875 0.70363,1.19063 0.70363,1.19062 v 2.24896 2.24896 l -0.50534,0.83496 -0.50534,0.83495 -0.98589,0.55411 -0.9859,0.5541 z M 70.535247,141.21911 H 67.885224 L 67.34575,140.64005 66.806276,140.061 v -9.34282 -9.34282 h 1.319252 1.319251 l 0.06981,8.53281 0.06981,8.53282 1.719792,0.13229 1.719792,0.13229 0.08064,1.25677 0.08064,1.25677 z m 4.896313,0 h -1.21695 v -4.49792 -4.49791 h 1.311299 1.311298 l 1.36571,2.65875 1.365709,2.65876 0.10852,-0.10852 0.108519,-0.10852 -0.271986,-0.71538 -0.271986,-0.71537 v -1.83486 -1.83486 h 1.322917 1.322917 v 4.49791 4.49792 H 80.434663 78.9818 l -1.470889,-2.84427 -1.470889,-2.84427 0.19214,0.52917 0.19214,0.52916 0.112104,2.31511 0.112105,2.3151 z m 8.837217,0 H 82.94586 v -9.92187 -9.92188 h 1.314773 1.314773 l 0.07429,3.24115 0.07429,3.24114 1.17517,-3.24114 1.17517,-3.24115 h 1.272226 1.272226 v 0.25215 0.25215 l -1.5875,4.10435 -1.5875,4.10435 9.46e-4,0.33985 9.46e-4,0.33986 1.685629,5.22552 1.685629,5.22552 h -1.36293 -1.36293 l -1.227158,-3.63802 -1.227158,-3.63802 -0.02253,3.63802 -0.02253,3.63802 z m 8.73125,0 H 91.67711 v -9.92187 -9.92188 h 1.322917 1.322917 v 4.36563 4.36562 h 1.058333 1.058333 v -4.36562 -4.36563 h 1.455209 1.455208 v 9.92188 9.92187 H 97.894819 96.43961 v -4.23333 -4.23334 h -1.058333 -1.058333 v 4.23334 4.23333 z m 28.442713,0 h -2.51355 l -0.52916,-0.52917 -0.52917,-0.52916 v -9.39271 -9.39271 h 3.04271 3.04271 v 1.32292 1.32291 h -1.71979 -1.7198 v 3.04271 3.04271 h 1.45521 1.45521 v 1.32292 1.32291 h -1.45521 -1.45521 v 2.91042 2.91042 h 1.7198 1.71979 v 1.32291 1.32292 z M 77.984922,130.5769 74.21461,130.6503 v -1.19789 -1.19789 h 1.190625 1.190625 v -2.24896 -2.24896 H 75.405235 74.21461 v -1.19062 -1.19063 h 3.851671 3.851672 l -0.08136,1.12448 -0.08136,1.12448 -1.256771,0.0806 -1.256771,0.0806 v 2.23447 2.23446 h 1.33813 1.33813 l -0.08136,1.12448 -0.08136,1.12448 z m 26.087618,0.0579 -1.15064,-9.9e-4 -0.84705,-0.51648 -0.84705,-0.51647 -0.43473,-0.84068 -0.43473,-0.84068 0.0912,-2.32898 0.0911,-2.32898 0.75227,-0.78487 0.75227,-0.78487 1.03423,-0.26252 1.03423,-0.26251 0.86556,0.19521 0.86556,0.19522 0.55162,0.29522 0.55161,0.29521 0.47774,0.72912 0.47773,0.72911 0.12086,1.88321 0.12086,1.88322 -0.52542,1.18778 -0.52541,1.18778 -0.93559,0.44397 -0.93559,0.44397 z m 0.0268,-2.38431 0.67469,-0.004 0.34318,-0.21769 0.34319,-0.2177 -0.0786,-1.96107 -0.0786,-1.96106 -0.87718,-0.0842 -0.87718,-0.0842 -0.37959,0.31503 -0.37959,0.31503 v 1.63448 1.63448 l 0.3175,0.3175 0.3175,0.3175 z"
         id="path26" /><path
         style="fill:#b9c6d8"
         d="m 104.04103,141.47334 -0.58996,-0.0104 -0.79375,-0.35278 -0.79375,-0.35279 -0.66146,-0.71569 -0.66146,-0.71569 -0.0866,-3.55138 -0.0866,-3.55137 h 1.21113 1.21112 v 3.02381 3.02381 l 0.41577,0.41577 0.41578,0.41577 h 0.58964 0.58964 l 0.3175,-0.3175 0.3175,-0.3175 v -3.12208 -3.12208 h 1.19063 1.19062 v 3.46488 3.46489 l -0.52575,0.73835 -0.52576,0.73836 -1.0671,0.42697 -1.06709,0.42696 z m 8.87739,-0.0203 -0.47152,-0.0307 -0.52916,-0.13249 -0.52917,-0.1325 -0.75754,-0.5376 -0.75754,-0.53761 -0.36694,-0.87821 -0.36694,-0.87821 v -1.86058 -1.86058 h 1.32292 1.32291 v 1.70089 1.70089 l 0.41578,0.41578 0.41577,0.41577 h 0.34558 0.34558 l 0.27571,-0.33221 0.27571,-0.33221 0.18309,-0.72951 0.1831,-0.72951 -0.17491,-1.16639 -0.17491,-1.16639 -1.84475,-2.06586 -1.84475,-2.06587 -0.52342,-1.08122 -0.52341,-1.08123 v -1.91398 -1.91398 l 0.38737,-0.7491 0.38737,-0.74909 0.82356,-0.69297 0.82355,-0.69298 h 1.18347 1.18346 l 0.79231,0.40972 0.79231,0.40972 0.51648,0.84705 0.51648,0.84705 9.8e-4,2.18282 9.9e-4,2.18281 h -1.16076 -1.16077 l -0.10628,-1.88093 -0.10629,-1.88093 -0.50237,-0.36734 -0.50238,-0.36735 -0.54568,0.36036 -0.54567,0.36035 -0.0843,1.15436 -0.0843,1.15436 0.1501,0.8001 0.1501,0.8001 1.84799,2.05468 1.84799,2.05468 0.40131,0.77606 0.40131,0.77605 v 2.50638 2.50638 l -0.71525,0.85003 -0.71525,0.85003 -0.86375,0.3609 -0.86375,0.36089 z m -42.521065,-0.23389 h -2.494338 l -0.54837,-0.69714 -0.548371,-0.69714 v -9.22473 -9.22474 h 1.322917 1.322917 v 8.57065 8.57065 l 0.418514,0.1606 0.418515,0.1606 h 1.301277 1.301277 v 1.19063 1.19062 z m 5.034205,0 h -1.21695 v -4.49792 -4.49791 h 1.320572 1.320571 l 1.4694,2.84427 1.469401,2.84427 -0.176547,-0.66146 -0.176546,-0.66146 -0.127034,-2.18281 -0.127035,-2.18281 h 1.217776 1.217775 v 4.49791 4.49792 h -1.281561 -1.28156 l -1.517362,-2.84427 -1.517361,-2.84427 0.199601,0.52917 0.199602,0.52916 0.112104,2.31511 0.112105,2.3151 z m 8.837217,0 H 82.94586 v -9.92187 -9.92188 h 1.322917 1.322916 l 0.01299,3.37344 0.01299,3.37344 1.243785,-3.37325 1.243785,-3.37324 1.256771,-2e-4 1.256771,-1.9e-4 v 0.24533 0.24533 l -1.5875,4.05097 -1.5875,4.05097 2.47e-4,0.40005 2.46e-4,0.40006 1.587254,5.00673 1.587253,5.00673 v 0.21879 0.21879 H 89.35493 88.091075 l -1.227158,-3.63802 -1.227158,-3.63802 -0.02253,3.63802 -0.02253,3.63802 z m 8.73125,0 H 91.67711 v -9.92187 -9.92188 h 1.322917 1.322917 v 4.36563 4.36562 h 1.058333 1.058333 v -4.36562 -4.36563 h 1.322917 1.322917 v 9.92188 9.92187 H 97.762527 96.43961 v -4.36562 -4.36563 h -1.058333 -1.058333 v 4.36563 4.36562 z m 28.453013,0 h -2.50323 l -0.53948,-0.57906 -0.53947,-0.57905 v -9.34282 -9.34282 h 3.04271 3.04271 v 1.32292 1.32291 h -1.71979 -1.7198 v 3.04271 3.04271 h 1.45521 1.45521 v 1.19063 1.19062 h -1.45521 -1.45521 v 3.0144 3.0144 l 0.41852,0.1606 0.41851,0.1606 h 1.30128 1.30128 v 1.19063 1.19062 z M 77.918777,130.63578 H 74.21461 v -1.19063 -1.19062 h 1.322917 1.322916 v -2.24896 -2.24896 H 75.537527 74.21461 v -1.19062 -1.19063 h 3.704167 3.704166 v 1.19063 1.19062 h -1.190625 -1.190625 v 2.24896 2.24896 h 1.190625 1.190625 v 1.19062 1.19063 z m 26.273033,-0.0104 -1.00532,-0.0103 -0.85469,-0.37156 -0.85468,-0.37156 -0.53339,-0.87485 -0.53339,-0.87486 v -2.11667 -2.11667 l 0.51648,-0.84705 0.51647,-0.84705 0.79231,-0.40972 0.79232,-0.40972 h 1.22908 1.22909 l 0.73256,0.43274 0.73257,0.43274 0.43274,0.73256 0.43273,0.73257 v 2.37089 2.37089 l -0.55252,0.70242 -0.55253,0.70243 -0.75725,0.39159 -0.75725,0.39159 z m 0.18417,-2.42494 0.92717,-0.0782 0.077,-2.0354 0.077,-2.03541 -0.55002,-0.29436 -0.55002,-0.29436 -0.58532,0.18261 -0.58531,0.18261 -0.19439,0.29507 -0.19439,0.29507 -0.004,1.60073 -0.004,1.60073 0.3296,0.32959 0.32959,0.3296 z"
         id="path25" /><path
         style="fill:#a9b4cf"
         d="m 104.63255,141.31424 -0.9169,0.14049 -0.75603,-0.23482 -0.75604,-0.23482 -0.52782,-0.47768 -0.52783,-0.47767 -0.36978,-0.71509 -0.36979,-0.71509 v -3.18814 -3.18814 h 1.19063 1.19062 v 3.12208 3.12208 l 0.3175,0.3175 0.3175,0.3175 h 0.5869 0.5869 l 0.41852,-0.16059 0.41851,-0.1606 v -3.27899 -3.27898 h 1.19063 1.19062 v 3.32043 3.32043 l -0.40135,0.77613 -0.40135,0.77613 -0.73227,0.37868 -0.73227,0.37867 z m 8.06885,0.16798 -0.27466,10e-4 -1.16097,-0.59531 -1.16096,-0.59531 -0.4826,-0.92191 -0.4826,-0.92192 v -1.92235 -1.92236 h 1.32292 1.32291 v 1.60489 1.6049 l 0.2739,0.51177 0.27389,0.51177 h 0.50485 0.50486 l 0.41188,-0.58804 0.41187,-0.58803 v -0.8341 -0.8341 l -0.16471,-0.82356 -0.16471,-0.82356 -1.82045,-2.05379 -1.82045,-2.05378 -0.52838,-1.07572 -0.52838,-1.07572 v -1.91398 -1.91398 l 0.37174,-0.71447 0.37173,-0.71446 0.67797,-0.63332 0.67796,-0.63332 1.28773,-0.12374 1.28774,-0.12373 0.84927,0.43917 0.84926,0.43917 0.51648,0.84705 0.51648,0.84705 9.8e-4,2.18282 9.9e-4,2.18281 h -1.16076 -1.16077 l -0.10628,-1.88093 -0.10629,-1.88093 -0.47845,-0.34986 -0.47846,-0.34985 -0.43731,0.16096 -0.4373,0.16097 -0.19439,0.28388 -0.19438,0.28388 -0.004,1.63335 -0.004,1.63334 0.71456,0.8802 0.71456,0.8802 1.28215,1.38626 1.28215,1.38626 0.38454,0.92034 0.38454,0.92035 v 2.38054 2.38054 l -0.81551,0.92882 -0.81552,0.92883 -0.97042,0.26953 -0.97042,0.26953 z m -42.304045,-0.26311 h -2.494338 l -0.54837,-0.69714 -0.548371,-0.69714 v -9.22473 -9.22474 h 1.319302 1.319301 l 0.06976,8.66511 0.06976,8.6651 1.653646,0.0788 1.653646,0.0788 v 1.178 1.178 z m 5.00788,0 H 74.21461 v -4.49792 -4.49791 h 1.320706 1.320707 l 1.459629,2.91041 1.459628,2.91042 h 0.104188 0.104187 l -0.370981,-1.23267 -0.370981,-1.23268 v -1.67774 -1.67774 h 1.190625 1.190625 v 4.49791 4.49792 l -1.25677,-0.004 -1.256771,-0.004 -1.44676,-2.76068 -1.44676,-2.76068 -0.105185,0.10519 -0.105186,0.10518 0.295174,0.84674 0.295175,0.84674 v 1.8126 1.8126 z m 8.863542,0 H 82.94586 v -9.92187 -9.92188 h 1.322917 1.322916 l 0.01282,3.37344 0.01282,3.37344 1.250135,-3.3073 1.250134,-3.30729 1.250589,-0.0806 1.250589,-0.0806 v 0.21611 0.21612 l -1.5875,4.05097 -1.5875,4.05097 v 0.53705 0.53706 l 1.5875,4.95143 1.5875,4.95142 v 0.18081 0.1808 h -1.278221 -1.27822 l -1.214198,-3.77031 -1.214197,-3.77031 -0.02112,3.77031 -0.02112,3.77031 z m 8.73125,0 H 91.67711 v -9.92187 -9.92188 h 1.322917 1.322917 v 4.36563 4.36562 h 1.051779 1.051779 l 0.0727,-4.29948 0.0727,-4.29948 1.256771,-0.0806 1.256771,-0.0806 v 9.93637 9.93637 H 97.762527 96.43961 v -4.36562 -4.36563 h -1.058333 -1.058333 v 4.36563 4.36562 z m 28.488833,0 h -2.46742 l -0.57529,-0.61236 -0.57529,-0.61237 v -9.30951 -9.30951 h 3.04271 3.04271 v 1.32292 1.32291 h -1.71979 -1.7198 v 3.04271 3.04271 h 1.45521 1.45521 v 1.19063 1.19062 h -1.4636 -1.46361 l 0.0745,3.10886 0.0746,3.10885 1.65364,0.0788 1.65365,0.0788 v 1.178 1.178 z M 77.918777,130.63578 H 74.21461 v -1.19063 -1.19062 h 1.322917 1.322916 v -2.24896 -2.24896 H 75.537527 74.21461 v -1.19062 -1.19063 h 3.704167 3.704166 v 1.19063 1.19062 h -1.190625 -1.190625 v 2.24896 2.24896 h 1.190625 1.190625 v 1.19062 1.19063 z m 26.131973,0 h -0.87252 l -0.90147,-0.48347 -0.90147,-0.48346 -0.48347,-0.90147 -0.48346,-0.90147 v -1.79856 -1.79857 l 0.38095,-0.91175 0.38096,-0.91175 0.87581,-0.54955 0.87582,-0.54955 1.5597,0.10039 1.5597,0.1004 0.8877,0.96864 0.88769,0.96865 v 2.48174 2.48175 l -0.57359,0.7292 -0.57359,0.7292 -0.87312,0.36482 -0.87312,0.36481 z m 0.32523,-2.4353 0.92717,-0.0782 0.079,-1.97856 0.079,-1.97856 -0.46025,-0.33655 -0.46026,-0.33654 h -0.45969 -0.4597 l -0.41578,0.41577 -0.41577,0.41578 v 1.64797 1.64798 l 0.3296,0.32959 0.32959,0.3296 z"
         id="path24" /><path
         style="fill:#93afd0"
         d="m 70.419159,141.21911 h -2.472535 l -0.504028,-0.55671 -0.504028,-0.55672 v -9.29901 -9.29902 l 1.253137,-0.0805 1.253137,-0.0805 0.06978,8.67946 0.06978,8.67945 1.653646,0.0788 1.653646,0.0788 v 1.178 1.178 z m 4.986076,0 H 74.21461 v -4.49792 -4.49791 h 1.320706 1.320707 l 1.459629,2.91041 1.459628,2.91042 h 0.117427 0.117426 l -0.381356,-1.25677 -0.381356,-1.25677 -0.0029,-1.65365 -0.0029,-1.65364 h 1.190625 1.190625 v 4.49791 4.49792 l -1.25677,-0.004 -1.256771,-0.004 -1.439156,-2.76798 -1.439155,-2.76798 -0.11279,0.11279 -0.11279,0.11279 0.295174,0.84674 0.295175,0.84674 v 1.8126 1.8126 z m 8.863542,0 H 82.94586 v -9.92187 -9.92188 h 1.315012 1.315012 l 0.07405,3.37344 0.07405,3.37344 1.190625,-3.3073 1.190625,-3.30729 1.279496,-0.0816 1.279497,-0.0816 -0.191225,0.61074 -0.191225,0.61074 -1.524755,3.89785 -1.524754,3.89785 1.688462,5.23027 1.688462,5.23028 0.0048,0.19843 0.0048,0.19844 -1.256771,-0.007 -1.256771,-0.007 -1.231729,-3.76339 -1.23173,-3.76339 -0.02504,3.77031 -0.02504,3.77031 z m 8.73125,0 H 91.67711 v -9.92187 -9.92188 h 1.322917 1.322917 v 4.36563 4.36562 h 1.190625 1.190625 v -4.36562 -4.36563 h 1.190625 1.190625 v 9.92188 9.92187 h -1.184071 -1.184071 l -0.0727,-4.29948 -0.0727,-4.29948 -1.124479,-0.0814 -1.124479,-0.0814 v 4.38083 4.38084 z m 11.244793,-0.006 -1.32292,-0.002 -0.63595,-0.32683 -0.63595,-0.32683 -0.55468,-0.74594 -0.55467,-0.74594 -0.0872,-3.42125 -0.0872,-3.42124 h 1.21165 1.21165 v 3.12208 3.12208 l 0.3175,0.3175 0.3175,0.3175 h 0.86382 0.86381 l 0.27389,-0.51177 0.2739,-0.51177 v -2.92781 -2.92781 h 1.05833 1.05833 l -0.009,3.37344 -0.009,3.37343 -0.33919,0.61126 -0.33919,0.61125 -0.77591,0.51148 -0.77591,0.51148 z m 8.69041,-0.001 -1.28208,-0.007 -0.73592,-0.45598 -0.73592,-0.45598 -0.52085,-1.07572 -0.52085,-1.07573 v -1.76854 -1.76855 h 1.32292 1.32291 v 1.79916 1.79917 l 0.3175,0.3175 0.3175,0.3175 h 0.45736 0.45735 l 0.41577,-0.41577 0.41577,-0.41578 v -1.28679 -1.28679 l -0.27714,-0.72896 -0.27715,-0.72896 -1.7134,-1.91442 -1.7134,-1.91442 -0.55495,-1.25455 -0.55495,-1.25456 0.1235,-1.92438 0.1235,-1.92438 0.452,-0.68983 0.452,-0.68984 0.84552,-0.51554 0.84552,-0.51555 0.88605,-9.9e-4 0.88606,-9.9e-4 0.93112,0.44185 0.93111,0.44184 0.49695,0.81493 0.49694,0.81492 9.8e-4,2.05052 9.9e-4,2.05052 h -1.19062 -1.19063 v -1.52862 -1.52863 l -0.41187,-0.58804 -0.41188,-0.58804 h -0.36298 -0.36297 l -0.41577,0.41578 -0.41578,0.41577 v 1.64202 1.64202 l 0.44133,0.65419 0.44132,0.65418 1.37766,1.46701 1.37765,1.467 0.56227,1.10214 0.56227,1.10214 v 2.14035 2.14035 l -0.39288,0.75975 -0.39288,0.75975 -0.77244,0.55003 -0.77244,0.55002 z m 8.62777,0.007 h -2.39328 l -0.64943,-0.64943 -0.64943,-0.64943 v -9.27245 -9.27244 h 3.04271 3.04271 v 1.32292 1.32291 h -1.71979 -1.7198 v 3.04271 3.04271 h 1.45521 1.45521 v 1.19063 1.19062 h -1.4636 -1.46361 l 0.0745,3.10886 0.0746,3.10885 1.65364,0.0788 1.65365,0.0788 v 1.178 1.178 z M 77.918777,130.63578 H 74.21461 v -1.19063 -1.19062 h 1.322917 1.322916 v -2.24896 -2.24896 H 75.537527 74.21461 v -1.19062 -1.19063 h 3.704167 3.704166 v 1.19063 1.19062 h -1.190625 -1.190625 v 2.24896 2.24896 h 1.190625 1.190625 v 1.19062 1.19063 z m 26.268393,-0.006 -0.7361,-0.006 -1.07841,-0.4898 -1.0784,-0.48979 -0.44295,-0.93344 -0.44295,-0.93345 4.1e-4,-1.8121 4.1e-4,-1.81209 0.46261,-0.90361 0.46261,-0.9036 0.92192,-0.48546 0.92191,-0.48546 h 1.00945 1.00946 l 0.75725,0.39159 0.75725,0.39159 0.55253,0.70242 0.55252,0.70243 -9.9e-4,2.27942 -9.8e-4,2.27943 -0.53398,0.87581 -0.53397,0.87582 -0.91175,0.38095 -0.91175,0.38096 z m 0.12379,-2.13175 0.33073,0.0209 0.52917,-0.52917 0.52917,-0.52916 v -1.39634 -1.39634 l -0.41188,-0.58803 -0.41188,-0.58804 h -0.53156 -0.53155 l -0.51178,0.27389 -0.51177,0.27389 0.004,1.77663 0.004,1.77663 0.19439,0.29106 0.19439,0.29105 0.39687,0.15108 0.39688,0.15107 z"
         id="path23" /><path
         style="fill:#858cb9"
         d="m 70.569315,141.21911 h -2.322379 l -0.588038,-0.41188 -0.588038,-0.41187 v -9.51 -9.51 h 1.187009 1.18701 l 0.06976,8.66511 0.06976,8.6651 1.653646,0.0788 1.653646,0.0788 v 1.178 1.178 z m 4.83592,0 H 74.21461 v -4.49792 -4.49791 h 1.268489 1.268489 l 1.147556,2.34119 1.147556,2.3412 0.519001,0.63537 0.519001,0.63536 -0.195209,-0.52916 -0.195209,-0.52917 -0.125563,-2.4474 -0.125563,-2.44739 h 1.089893 1.089892 v 4.49791 4.49792 h -1.266369 -1.26637 l -1.436011,-2.91042 -1.436011,-2.91041 h -0.195381 -0.19538 l 0.381355,1.25677 0.381356,1.25677 0.0029,1.65365 0.0029,1.65364 z m 8.853057,0 h -1.318873 l 0.06937,-9.85573 0.06937,-9.85573 h 1.190625 1.190625 l 0.08649,3.43959 0.08649,3.43958 1.267266,-3.43958 1.267265,-3.43959 1.225928,-0.0806 1.225927,-0.0806 v 0.0902 0.0902 l -1.707232,4.41606 -1.707232,4.41607 1.534303,4.83481 1.534303,4.83482 0.195654,0.61073 0.195655,0.61074 -1.268862,-0.0816 -1.268862,-0.0816 -1.201259,-3.70417 -1.20126,-3.70416 -0.07341,3.77031 -0.07341,3.77031 z m 8.738515,0 H 91.67067 l 0.06937,-9.85573 0.06937,-9.85573 h 1.190625 1.190625 l 0.0727,4.29948 0.0727,4.29948 h 1.184071 1.184071 v -4.36562 -4.36563 h 1.190625 1.190625 v 9.92188 9.92187 h -1.190625 -1.190625 v -4.36562 -4.36563 h -1.190625 -1.190625 v 4.36563 4.36562 z m 11.291023,0 h -1.41996 l -0.89903,-0.60447 -0.89902,-0.60448 -0.3158,-0.91688 -0.31579,-0.91688 -0.0149,-2.97656 -0.0149,-2.97656 h 1.19063 1.19062 v 3.12208 3.12208 l 0.3175,0.3175 0.3175,0.3175 h 0.86382 0.86381 l 0.27389,-0.51177 0.2739,-0.51177 v -2.92781 -2.92781 h 1.07883 1.07883 l -0.0866,3.59288 -0.0867,3.59289 -0.9883,0.90503 -0.9883,0.90503 z m 8.49901,-9.9e-4 -1.24757,9.9e-4 -0.92882,-0.81551 -0.92882,-0.81552 -0.26953,-0.97042 -0.26954,-0.97042 -0.001,-1.52136 -0.001,-1.52135 h 1.32292 1.32291 v 1.79916 1.79917 l 0.3175,0.3175 0.3175,0.3175 h 0.59924 0.59923 l 0.27389,-0.51177 0.27389,-0.51177 v -1.43568 -1.43569 l -0.69282,-1.0291 -0.69283,-1.02911 -1.25849,-1.33827 -1.25848,-1.33826 -0.4938,-0.9107 -0.49379,-0.91069 -0.002,-2.2957 -0.002,-2.2957 0.54798,-0.74701 0.54797,-0.74701 0.90724,-0.46261 0.90723,-0.46261 0.79788,-4.1e-4 0.79787,-4.1e-4 0.90148,0.48347 0.90147,0.48346 0.48346,0.90147 0.48346,0.90147 v 1.92236 1.92235 h -1.19062 -1.19063 v -1.67878 -1.67878 l -0.53024,-0.47987 -0.53024,-0.47986 -0.66038,0.30089 -0.66039,0.30089 v 1.79889 1.79888 l 0.44548,0.65419 0.44548,0.65418 1.44473,1.57761 1.44473,1.57762 0.48523,1.06822 0.48523,1.06822 0.006,2.06366 0.006,2.06366 -0.40972,0.79231 -0.40972,0.79231 -0.84705,0.51648 -0.84705,0.51647 z m 8.77616,9.9e-4 h -2.39328 l -0.65287,-0.65287 -0.65287,-0.65287 0.0696,-9.20286 0.0696,-9.20286 2.97656,-0.0748 2.97657,-0.0748 v 1.33158 1.33158 h -1.71979 -1.7198 v 3.04271 3.04271 h 1.45521 1.45521 v 1.19063 1.19062 h -1.4636 -1.46361 l 0.0745,3.10886 0.0746,3.10885 1.65364,0.0788 1.65365,0.0788 v 1.178 1.178 z m -17.45047,-10.58955 -0.66146,0.005 -0.90724,-0.46261 -0.90723,-0.46261 -0.54797,-0.74792 -0.54798,-0.74791 3.9e-4,-2.2948 3.8e-4,-2.29479 0.47813,-0.70481 0.47813,-0.70481 0.88439,-0.41967 0.88439,-0.41967 h 0.82841 0.8284 l 0.91175,0.38095 0.91175,0.38096 0.53397,0.87582 0.53398,0.87581 9.8e-4,2.06366 9.9e-4,2.06366 -0.41442,0.80141 -0.41442,0.8014 -1.10693,0.50256 -1.10693,0.50257 z m 0.0661,-2.11849 0.46302,0.008 0.52917,-0.52917 0.52917,-0.52916 v -1.5686 -1.5686 l -0.41578,-0.41578 -0.41577,-0.41577 h -0.72194 -0.72193 l -0.3175,0.3175 -0.3175,0.3175 v 1.91831 1.91831 l 0.46302,0.26969 0.46302,0.26968 z m -26.259893,1.86012 H 74.21461 v -1.05833 -1.05833 h 1.322917 1.322916 v -2.38125 -2.38125 H 75.537527 74.21461 v -1.05834 -1.05833 h 3.704167 3.704166 v 1.04384 1.04383 l -1.25677,0.0806 -1.256771,0.0806 -0.07645,2.3151 -0.07645,2.31511 h 1.333218 1.333217 v 1.05833 1.05833 z"
         id="path22" /><path
         style="fill:#7294c4"
         d="m 70.569315,141.21911 h -2.322379 l -0.588038,-0.41188 -0.588038,-0.41187 v -9.51 -9.51 h 1.187009 1.18701 l 0.06976,8.66511 0.06976,8.6651 1.653646,0.0788 1.653646,0.0788 v 1.178 1.178 z m 4.83592,0 H 74.21461 v -4.49792 -4.49791 h 1.268489 1.268489 l 1.147556,2.34119 1.147556,2.3412 0.519001,0.63537 0.519001,0.63536 -0.195209,-0.52916 -0.195209,-0.52917 -0.125563,-2.4474 -0.125563,-2.44739 h 1.089893 1.089892 v 4.49791 4.49792 h -1.266369 -1.26637 l -1.436011,-2.91042 -1.436011,-2.91041 h -0.195381 -0.19538 l 0.381355,1.25677 0.381356,1.25677 0.0029,1.65365 0.0029,1.65364 z m 8.853057,0 h -1.318873 l 0.06937,-9.85573 0.06937,-9.85573 h 1.190625 1.190625 l 0.08649,3.43959 0.08649,3.43958 1.267266,-3.43958 1.267265,-3.43959 1.225928,-0.0806 1.225927,-0.0806 v 0.0902 0.0902 l -1.707232,4.41606 -1.707232,4.41607 1.534303,4.83481 1.534303,4.83482 0.195654,0.61073 0.195655,0.61074 -1.268862,-0.0816 -1.268862,-0.0816 -1.201259,-3.70417 -1.20126,-3.70416 -0.07341,3.77031 -0.07341,3.77031 z m 8.738515,0 H 91.67067 l 0.06937,-9.85573 0.06937,-9.85573 h 1.190625 1.190625 l 0.0727,4.29948 0.0727,4.29948 h 1.184071 1.184071 v -4.36562 -4.36563 h 1.190625 1.190625 v 9.92188 9.92187 h -1.190625 -1.190625 v -4.36562 -4.36563 h -1.190625 -1.190625 v 4.36563 4.36562 z m 11.459163,-0.0694 -1.53407,0.0985 -0.84301,-0.5296 -0.84301,-0.5296 -0.28147,-0.52593 -0.28147,-0.52593 v -3.45697 -3.45698 h 1.05834 1.05833 v 3.1689 3.1689 l 0.62575,0.41 0.62574,0.41001 0.66109,-0.25135 0.66108,-0.25134 0.16838,-0.43878 0.16838,-0.43879 v -2.88877 -2.88878 h 1.07883 1.07883 l -0.0866,3.56754 -0.0867,3.56754 -0.84718,0.84643 -0.84718,0.84642 z m 8.48887,0.0684 -1.0271,-9.9e-4 -0.82902,-0.50551 -0.82901,-0.5055 -0.42776,-0.61071 -0.42776,-0.61071 v -2.19008 -2.19009 h 1.19063 1.19062 v 1.79916 1.79917 l 0.3175,0.3175 0.3175,0.3175 h 0.59924 0.59923 l 0.27389,-0.51177 0.27389,-0.51177 v -1.56922 -1.56921 l -0.5723,-0.76328 -0.57231,-0.76329 -1.12248,-1.19063 -1.12247,-1.19062 -0.68647,-1.02911 -0.68647,-1.02911 9.9e-4,-2.41047 9.9e-4,-2.41048 0.49694,-0.81492 0.49694,-0.81493 0.99215,-0.4708 0.99215,-0.47081 0.91916,0.14916 0.91915,0.14916 0.64611,0.42334 0.6461,0.42335 0.51555,0.84552 0.51555,0.84552 9.8e-4,1.91823 9.9e-4,1.91822 h -1.19062 -1.19063 v -1.70089 -1.70089 l -0.41577,-0.41577 -0.41577,-0.41578 h -0.45735 -0.45736 l -0.3175,0.3175 -0.3175,0.3175 v 1.87927 1.87927 l 2.01783,2.3489 2.01783,2.3489 0.36342,0.86979 0.36342,0.86979 v 1.88674 1.88674 l -0.42504,0.89572 -0.42504,0.89571 -0.86296,0.53333 -0.86296,0.53334 z m 8.82862,-0.003 -2.18281,-0.004 -0.66146,-0.33456 -0.66145,-0.33456 -0.0695,-9.45112 -0.0695,-9.45113 h 2.91376 2.91376 v 1.05834 1.05833 h -1.71979 -1.7198 v 3.175 3.175 h 1.45521 1.45521 v 1.19063 1.19062 h -1.45521 -1.45521 v 3.175 3.175 h 1.7198 1.71979 v 1.19063 1.19062 z m -16.99947,-10.76809 -0.79375,0.13966 -0.92224,-0.21942 -0.92223,-0.21941 -0.73142,-0.8186 -0.73141,-0.81859 v -2.39021 -2.39022 l 0.38671,-0.74781 0.38671,-0.74782 1.07386,-0.42967 1.07385,-0.42967 h 0.6646 0.6646 l 0.91175,0.38095 0.91175,0.38096 0.53397,0.87582 0.53398,0.87581 9.8e-4,2.06366 9.9e-4,2.06366 -0.40135,0.77614 -0.40135,0.77613 -0.72313,0.36949 -0.72312,0.36948 z m -0.55,-1.93605 0.50833,0.008 0.48385,-0.43788 0.48386,-0.43788 v -1.65989 -1.65988 l -0.41578,-0.41578 -0.41577,-0.41577 h -0.72194 -0.72193 l -0.3175,0.3175 -0.3175,0.3175 v 1.91831 1.91831 l 0.46302,0.26969 0.46302,0.26968 z m -26.305213,1.86012 H 74.21461 v -1.05833 -1.05833 h 1.322917 1.322916 v -2.38125 -2.38125 H 75.537527 74.21461 v -1.05834 -1.05833 h 3.704167 3.704166 v 1.04384 1.04383 l -1.25677,0.0806 -1.256771,0.0806 -0.07645,2.3151 -0.07645,2.31511 h 1.333218 1.333217 v 1.05833 1.05833 z"
         id="path21" /><path
         style="fill:#7289bc"
         d="m 70.708881,141.21107 -2.182813,-0.008 -0.529167,-0.30007 -0.529166,-0.30007 -0.194386,-0.2872 -0.194386,-0.28719 -0.0041,-9.19427 -0.0041,-9.19428 h 1.190625 1.190625 v 8.59896 8.59896 h 1.719792 1.719791 v 1.19063 1.19062 z m 4.589602,0.008 H 74.21461 v -4.49792 -4.49791 h 1.266369 1.26637 l 1.436011,2.91041 1.436011,2.91042 h 0.238895 0.238895 l -0.196806,-0.59531 -0.196805,-0.59531 -0.124962,-2.31511 -0.124962,-2.3151 h 1.084659 1.084658 v 4.49791 4.49792 H 80.4515 79.280058 l -1.540537,-2.9102 -1.540536,-2.91019 -0.226745,-2.2e-4 -0.226745,-2.2e-4 0.208302,0.46302 0.208303,0.46302 0.110128,2.4474 0.110129,2.44739 z m 8.970294,0 h -1.058334 v -9.78958 -9.78959 h 1.058334 1.058333 v 3.4925 3.4925 l 0.247704,-0.25135 0.247703,-0.25135 1.143138,-3.175 1.143138,-3.175 1.1227,-0.0814 1.122701,-0.0814 v 0.25754 0.25753 l -1.607719,4.1117 -1.607718,4.1117 1.380812,4.31108 1.380812,4.31108 0.346543,1.12448 0.346542,1.12448 h -1.156029 -1.15603 l -1.235073,-3.70587 -1.235074,-3.70587 -0.242075,0.14961 -0.242075,0.14961 v 3.55626 3.55626 z m 8.592404,0 H 91.67711 v -9.78958 -9.78959 h 1.190625 1.190625 v 4.23334 4.23333 h 1.322917 1.322917 v -4.23333 -4.23334 h 1.190625 1.190625 v 9.78959 9.78958 h -1.190625 -1.190625 v -4.38012 -4.38012 l -1.256771,0.0806 -1.256771,0.0806 -0.0727,4.29948 -0.0727,4.29948 z m 11.594789,-0.0694 -1.53407,0.0985 -0.84301,-0.5296 -0.84301,-0.5296 -0.28147,-0.52593 -0.28147,-0.52593 v -3.45697 -3.45698 h 1.05834 1.05833 v 3.1689 3.1689 l 0.62575,0.41 0.62574,0.41001 0.66109,-0.25135 0.66108,-0.25134 0.16838,-0.43878 0.16838,-0.43879 v -2.88877 -2.88878 h 1.07883 1.07883 l -0.0866,3.56754 -0.0867,3.56754 -0.84718,0.84643 -0.84718,0.84642 z m 8.48887,0.0684 -1.0271,-9.9e-4 -0.82902,-0.50551 -0.82901,-0.5055 -0.42776,-0.61071 -0.42776,-0.61071 v -2.19008 -2.19009 h 1.19063 1.19062 v 1.79916 1.79917 l 0.3175,0.3175 0.3175,0.3175 h 0.59924 0.59923 l 0.27389,-0.51177 0.27389,-0.51177 v -1.56922 -1.56921 l -0.5723,-0.76328 -0.57231,-0.76329 -1.12248,-1.19063 -1.12247,-1.19062 -0.68647,-1.02911 -0.68647,-1.02911 9.9e-4,-2.41047 9.9e-4,-2.41048 0.49694,-0.81492 0.49694,-0.81493 0.99215,-0.4708 0.99215,-0.47081 0.91916,0.14916 0.91915,0.14916 0.64611,0.42334 0.6461,0.42335 0.51555,0.84552 0.51555,0.84552 9.8e-4,1.91823 9.9e-4,1.91822 h -1.19062 -1.19063 v -1.70089 -1.70089 l -0.41577,-0.41577 -0.41577,-0.41578 h -0.45735 -0.45736 l -0.3175,0.3175 -0.3175,0.3175 v 1.87927 1.87927 l 2.01783,2.3489 2.01783,2.3489 0.36342,0.86979 0.36342,0.86979 v 1.88674 1.88674 l -0.42504,0.89572 -0.42504,0.89571 -0.86296,0.53333 -0.86296,0.53334 z m 8.82862,-0.003 -2.18281,-0.004 -0.66146,-0.33456 -0.66145,-0.33456 -0.0695,-9.45112 -0.0695,-9.45113 h 2.91376 2.91376 v 1.05834 1.05833 h -1.71979 -1.7198 v 3.175 3.175 h 1.45521 1.45521 v 1.19063 1.19062 h -1.45521 -1.45521 v 3.175 3.175 h 1.7198 1.71979 v 1.19063 1.19062 z m -16.99947,-10.76809 -0.79375,0.13966 -0.92224,-0.21942 -0.92223,-0.21941 -0.73142,-0.8186 -0.73141,-0.81859 v -2.39021 -2.39022 l 0.38671,-0.74781 0.38671,-0.74782 1.07386,-0.42967 1.07385,-0.42967 h 0.6646 0.6646 l 0.91175,0.38095 0.91175,0.38096 0.53397,0.87582 0.53398,0.87581 9.8e-4,2.06366 9.9e-4,2.06366 -0.40135,0.77614 -0.40135,0.77613 -0.72313,0.36949 -0.72312,0.36948 z m -0.55,-1.93605 0.50833,0.008 0.48385,-0.43788 0.48386,-0.43788 v -1.65989 -1.65988 l -0.41578,-0.41578 -0.41577,-0.41577 h -0.72194 -0.72193 l -0.3175,0.3175 -0.3175,0.3175 v 1.91831 1.91831 l 0.46302,0.26969 0.46302,0.26968 z m -26.305213,1.86012 H 74.21461 v -0.92604 -0.92604 h 1.322917 1.322916 v -2.51354 -2.51354 H 75.537527 74.21461 v -0.92604 -0.92605 h 3.704167 3.704166 v 0.92605 0.92604 H 80.300027 78.97711 v 2.51354 2.51354 h 1.322917 1.322916 v 0.92604 0.92604 z"
         id="path20" /><path
         style="fill:#5289c4"
         d="m 70.708881,141.21107 -2.182813,-0.008 -0.529167,-0.30007 -0.529166,-0.30007 -0.194386,-0.2872 -0.194386,-0.28719 -0.0041,-9.19427 -0.0041,-9.19428 h 1.190625 1.190625 v 8.59896 8.59896 h 1.719792 1.719791 v 1.19063 1.19062 z m 4.589602,0.008 H 74.21461 v -4.49792 -4.49791 h 1.266369 1.26637 l 1.436011,2.91041 1.436011,2.91042 h 0.238895 0.238895 l -0.196806,-0.59531 -0.196805,-0.59531 -0.124962,-2.31511 -0.124962,-2.3151 h 1.084659 1.084658 v 4.49791 4.49792 H 80.4515 79.280058 l -1.540537,-2.9102 -1.540536,-2.91019 -0.226745,-2.2e-4 -0.226745,-2.2e-4 0.208302,0.46302 0.208303,0.46302 0.110128,2.4474 0.110129,2.44739 z m 8.970294,0 h -1.058334 v -9.78958 -9.78959 h 1.058334 1.058333 v 3.4925 3.4925 l 0.243482,-0.25135 0.243481,-0.25135 1.16446,-3.175 1.164459,-3.175 1.105601,-0.0814 1.105601,-0.0814 4.88e-4,0.21365 4.89e-4,0.21365 -1.605366,4.16451 -1.605366,4.16451 1.371319,4.30216 1.371319,4.30215 0.339956,1.12448 0.339955,1.12448 h -1.14279 -1.142791 l -1.235073,-3.70587 -1.235074,-3.70587 -0.242075,0.14961 -0.242075,0.14961 v 3.55626 3.55626 z m 8.73125,0 h -1.058333 v -9.78958 -9.78959 h 1.058333 1.058333 v 4.23334 4.23333 h 1.322917 1.322917 v -4.23333 -4.23334 h 1.190625 1.190625 v 9.78959 9.78958 h -1.190625 -1.190625 v -4.36562 -4.36563 H 95.381277 94.05836 v 4.36563 4.36562 z m 11.191783,-0.006 -1.00532,-0.006 -0.87364,-0.43055 -0.87363,-0.43055 -0.38314,-0.74091 -0.38314,-0.74091 v -3.32043 -3.32043 h 1.05043 1.05043 l 0.074,3.35179 0.074,3.3518 0.73608,0.24495 0.73609,0.24496 0.65298,-0.42785 0.65298,-0.42785 v -3.1689 -3.1689 h 1.05833 1.05833 l -9.9e-4,3.24114 -9.8e-4,3.24115 -0.51648,0.84705 -0.51648,0.84705 -0.79231,0.40972 -0.79231,0.40972 z m 8.6561,0.005 -0.93017,-9.9e-4 -0.84706,-0.51647 -0.84705,-0.51648 -0.40972,-0.79231 -0.40972,-0.79231 v -1.99752 -1.99751 h 1.1795 1.17949 l 0.0773,2.05052 0.0773,2.05052 0.7436,0.0853 0.7436,0.0853 0.38088,-0.3161 0.38087,-0.3161 v -1.76081 -1.76082 l -0.44501,-0.65418 -0.44501,-0.65419 -1.4875,-1.60788 -1.4875,-1.60789 -0.44874,-0.94564 -0.44874,-0.94564 9.9e-4,-2.20897 9.9e-4,-2.20898 0.49694,-0.81492 0.49694,-0.81493 0.99215,-0.4708 0.99215,-0.47081 0.95111,0.15435 0.95112,0.15434 0.66766,0.48874 0.66766,0.48873 0.46261,0.90724 0.46261,0.90723 4.1e-4,1.78594 4.1e-4,1.78593 h -1.19062 -1.19063 v -1.60489 -1.60489 l -0.27389,-0.51178 -0.27389,-0.51177 h -0.59923 -0.59924 l -0.3175,0.3175 -0.3175,0.3175 v 1.92128 1.92128 l 1.84598,2.0607 1.84598,2.0607 0.46109,0.92604 0.46108,0.92604 0.0889,2.11667 0.0889,2.11667 -0.49818,0.9056 -0.49817,0.90559 -0.90147,0.48347 -0.90148,0.48346 z m 8.92555,-0.003 -2.18281,-0.004 -0.66146,-0.33456 -0.66145,-0.33456 -0.0695,-9.45112 -0.0695,-9.45113 h 2.91376 2.91376 v 1.05834 1.05833 h -1.71979 -1.7198 v 3.175 3.175 h 1.45521 1.45521 v 1.19063 1.19062 h -1.45521 -1.45521 v 3.175 3.175 h 1.7198 1.71979 v 1.19063 1.19062 z m -16.99947,-10.78626 -0.79375,0.13104 -0.99044,-0.25256 -0.99043,-0.25256 -0.66322,-0.78818 -0.66321,-0.78818 v -2.5197 -2.5197 l 0.87872,-0.87871 0.87872,-0.87872 1.00579,-0.18869 1.00579,-0.18869 1.22434,0.5033 1.22435,0.5033 0.46261,0.92129 0.46261,0.9213 4.1e-4,1.81209 4.1e-4,1.8121 -0.40115,0.84536 -0.40115,0.84536 -0.72333,0.41476 -0.72332,0.41475 z m -0.62745,-1.90984 h 0.72194 l 0.41577,-0.41577 0.41578,-0.41578 v -1.58599 -1.586 l -0.2739,-0.51177 -0.27389,-0.51177 h -0.86381 -0.86382 l -0.3175,0.3175 -0.3175,0.3175 v 1.87854 1.87854 l 0.3175,0.3175 0.3175,0.3175 z m -26.227763,1.85208 H 74.21461 v -0.92604 -0.92604 h 1.322917 1.322916 v -2.51354 -2.51354 H 75.537527 74.21461 v -0.92604 -0.92605 h 3.704167 3.704166 v 0.92605 0.92604 H 80.300027 78.97711 v 2.51354 2.51354 h 1.322917 1.322916 v 0.92604 0.92604 z"
         id="path19" /><path
         style="fill:#5883be"
         d="m 84.268777,141.21911 h -1.058334 v -9.78958 -9.78959 h 1.058334 1.058333 v 3.4925 3.4925 l 0.243482,-0.25135 0.243481,-0.25135 1.16446,-3.175 1.164459,-3.175 1.105601,-0.0814 1.105601,-0.0814 4.88e-4,0.21365 4.89e-4,0.21365 -1.605366,4.16451 -1.605366,4.16451 1.371319,4.30216 1.371319,4.30215 0.339956,1.12448 0.339955,1.12448 h -1.14279 -1.142791 l -1.235073,-3.70587 -1.235074,-3.70587 -0.242075,0.14961 -0.242075,0.14961 v 3.55626 3.55626 z m 8.73125,0 h -1.058333 v -9.78958 -9.78959 h 1.058333 1.058333 v 4.23334 4.23333 h 1.322917 1.322917 v -4.23333 -4.23334 h 1.190625 1.190625 v 9.78959 9.78958 h -1.190625 -1.190625 v -4.36562 -4.36563 H 95.381277 94.05836 v 4.36563 4.36562 z m 11.191783,-0.006 -1.00532,-0.006 -0.87364,-0.43055 -0.87363,-0.43055 -0.38314,-0.74091 -0.38314,-0.74091 v -3.32043 -3.32043 h 1.05043 1.05043 l 0.074,3.35179 0.074,3.3518 0.73608,0.24495 0.73609,0.24496 0.65298,-0.42785 0.65298,-0.42785 v -3.1689 -3.1689 h 1.05833 1.05833 l -9.9e-4,3.24114 -9.8e-4,3.24115 -0.51648,0.84705 -0.51648,0.84705 -0.79231,0.40972 -0.79231,0.40972 z m 8.6561,0.005 -0.93017,-9.9e-4 -0.84706,-0.51647 -0.84705,-0.51648 -0.40972,-0.79231 -0.40972,-0.79231 v -1.99752 -1.99751 h 1.1795 1.17949 l 0.0773,2.05052 0.0773,2.05052 0.7436,0.0853 0.7436,0.0853 0.38088,-0.3161 0.38087,-0.3161 v -1.76081 -1.76082 l -0.44501,-0.65418 -0.44501,-0.65419 -1.4875,-1.60788 -1.4875,-1.60789 -0.44874,-0.94564 -0.44874,-0.94564 9.9e-4,-2.20897 9.9e-4,-2.20898 0.49694,-0.81492 0.49694,-0.81493 0.99215,-0.4708 0.99215,-0.47081 0.95111,0.15435 0.95112,0.15434 0.66766,0.48874 0.66766,0.48873 0.46261,0.90724 0.46261,0.90723 4.1e-4,1.78594 4.1e-4,1.78593 h -1.19062 -1.19063 v -1.60489 -1.60489 l -0.27389,-0.51178 -0.27389,-0.51177 h -0.59923 -0.59924 l -0.3175,0.3175 -0.3175,0.3175 v 1.92128 1.92128 l 1.84598,2.0607 1.84598,2.0607 0.46109,0.92604 0.46108,0.92604 0.0889,2.11667 0.0889,2.11667 -0.49818,0.9056 -0.49817,0.90559 -0.90147,0.48347 -0.90148,0.48346 z m 8.92555,-0.003 -2.18281,-0.004 -0.66146,-0.33456 -0.66145,-0.33456 -0.0695,-9.45112 -0.0695,-9.45113 h 2.91376 2.91376 v 1.05834 1.05833 h -1.71979 -1.7198 v 3.175 3.175 h 1.45521 1.45521 v 1.19063 1.19062 h -1.45521 -1.45521 v 3.175 3.175 h 1.7198 1.71979 v 1.19063 1.19062 z m -16.99947,-10.78626 -0.79375,0.13104 -0.99044,-0.25256 -0.99043,-0.25256 -0.66322,-0.78818 -0.66321,-0.78818 v -2.5197 -2.5197 l 0.87872,-0.87871 0.87872,-0.87872 1.00579,-0.18869 1.00579,-0.18869 1.22434,0.5033 1.22435,0.5033 0.46261,0.92129 0.46261,0.9213 4.1e-4,1.81209 4.1e-4,1.8121 -0.40115,0.84536 -0.40115,0.84536 -0.72333,0.41476 -0.72332,0.41475 z m -0.62745,-1.90984 h 0.72194 l 0.41577,-0.41577 0.41578,-0.41578 v -1.58599 -1.586 l -0.2739,-0.51177 -0.27389,-0.51177 h -0.86381 -0.86382 l -0.3175,0.3175 -0.3175,0.3175 v 1.87854 1.87854 l 0.3175,0.3175 0.3175,0.3175 z"
         id="path18" /><path
         style="fill:#5d7eba"
         d="m 93.000027,141.21911 h -1.058333 v -9.78958 -9.78959 h 1.058333 1.058333 v 4.23334 4.23333 h 1.322917 1.322917 v -4.23333 -4.23334 h 1.190625 1.190625 v 9.78959 9.78958 h -1.190625 -1.190625 v -4.36562 -4.36563 H 95.381277 94.05836 v 4.36563 4.36562 z m 11.191783,-0.006 -1.00532,-0.006 -0.87364,-0.43055 -0.87363,-0.43055 -0.38314,-0.74091 -0.38314,-0.74091 v -3.32043 -3.32043 h 1.05043 1.05043 l 0.074,3.35179 0.074,3.3518 0.73608,0.24495 0.73609,0.24496 0.65298,-0.42785 0.65298,-0.42785 v -3.1689 -3.1689 h 1.05833 1.05833 l -9.9e-4,3.24114 -9.8e-4,3.24115 -0.51648,0.84705 -0.51648,0.84705 -0.79231,0.40972 -0.79231,0.40972 z m 8.6561,0.005 -0.93017,-9.9e-4 -0.84706,-0.51647 -0.84705,-0.51648 -0.40972,-0.79231 -0.40972,-0.79231 v -1.99752 -1.99751 h 1.1795 1.17949 l 0.0773,2.05052 0.0773,2.05052 0.7436,0.0853 0.7436,0.0853 0.38088,-0.3161 0.38087,-0.3161 v -1.76081 -1.76082 l -0.44501,-0.65418 -0.44501,-0.65419 -1.4875,-1.60788 -1.4875,-1.60789 -0.44874,-0.94564 -0.44874,-0.94564 9.9e-4,-2.20897 9.9e-4,-2.20898 0.49694,-0.81492 0.49694,-0.81493 0.99215,-0.4708 0.99215,-0.47081 0.95111,0.15435 0.95112,0.15434 0.66766,0.48874 0.66766,0.48873 0.46261,0.90724 0.46261,0.90723 4.1e-4,1.78594 4.1e-4,1.78593 h -1.19062 -1.19063 v -1.60489 -1.60489 l -0.27389,-0.51178 -0.27389,-0.51177 h -0.59923 -0.59924 l -0.3175,0.3175 -0.3175,0.3175 v 1.92128 1.92128 l 1.84598,2.0607 1.84598,2.0607 0.46109,0.92604 0.46108,0.92604 0.0889,2.11667 0.0889,2.11667 -0.49818,0.9056 -0.49817,0.90559 -0.90147,0.48347 -0.90148,0.48346 z m 8.92555,-0.003 -2.18281,-0.004 -0.66146,-0.33456 -0.66145,-0.33456 -0.0695,-9.45112 -0.0695,-9.45113 h 2.91376 2.91376 v 1.05834 1.05833 h -1.71979 -1.7198 v 3.175 3.175 h 1.45521 1.45521 v 1.19063 1.19062 h -1.45521 -1.45521 v 3.175 3.175 h 1.7198 1.71979 v 1.19063 1.19062 z m -16.99947,-10.78626 -0.79375,0.13104 -0.99044,-0.25256 -0.99043,-0.25256 -0.66322,-0.78818 -0.66321,-0.78818 v -2.5197 -2.5197 l 0.87872,-0.87871 0.87872,-0.87872 1.00579,-0.18869 1.00579,-0.18869 1.22434,0.5033 1.22435,0.5033 0.46261,0.92129 0.46261,0.9213 4.1e-4,1.81209 4.1e-4,1.8121 -0.40115,0.84536 -0.40115,0.84536 -0.72333,0.41476 -0.72332,0.41475 z m -0.62745,-1.90984 h 0.72194 l 0.41577,-0.41577 0.41578,-0.41578 v -1.58599 -1.586 l -0.2739,-0.51177 -0.27389,-0.51177 h -0.86381 -0.86382 l -0.3175,0.3175 -0.3175,0.3175 v 1.87854 1.87854 l 0.3175,0.3175 0.3175,0.3175 z"
         id="path17" /><path
         style="fill:#6179b5"
         d="m 104.19181,141.21309 -1.00532,-0.006 -0.87364,-0.43055 -0.87363,-0.43055 -0.38314,-0.74091 -0.38314,-0.74091 v -3.32043 -3.32043 h 1.05043 1.05043 l 0.074,3.35179 0.074,3.3518 0.73608,0.24495 0.73609,0.24496 0.65298,-0.42785 0.65298,-0.42785 v -3.1689 -3.1689 h 1.05833 1.05833 l -9.9e-4,3.24114 -9.8e-4,3.24115 -0.51648,0.84705 -0.51648,0.84705 -0.79231,0.40972 -0.79231,0.40972 z m 8.6561,0.005 -0.93017,-9.9e-4 -0.84706,-0.51647 -0.84705,-0.51648 -0.40972,-0.79231 -0.40972,-0.79231 v -1.99752 -1.99751 h 1.1795 1.17949 l 0.0773,2.05052 0.0773,2.05052 0.7436,0.0853 0.7436,0.0853 0.38088,-0.3161 0.38087,-0.3161 v -1.76081 -1.76082 l -0.44501,-0.65418 -0.44501,-0.65419 -1.4875,-1.60788 -1.4875,-1.60789 -0.44874,-0.94564 -0.44874,-0.94564 9.9e-4,-2.20897 9.9e-4,-2.20898 0.49694,-0.81492 0.49694,-0.81493 0.99215,-0.4708 0.99215,-0.47081 0.95111,0.15435 0.95112,0.15434 0.66766,0.48874 0.66766,0.48873 0.46261,0.90724 0.46261,0.90723 4.1e-4,1.78594 4.1e-4,1.78593 h -1.19062 -1.19063 v -1.60489 -1.60489 l -0.27389,-0.51178 -0.27389,-0.51177 h -0.59923 -0.59924 l -0.3175,0.3175 -0.3175,0.3175 v 1.92128 1.92128 l 1.84598,2.0607 1.84598,2.0607 0.46109,0.92604 0.46108,0.92604 0.0889,2.11667 0.0889,2.11667 -0.49818,0.9056 -0.49817,0.90559 -0.90147,0.48347 -0.90148,0.48346 z m 8.92555,-0.003 -2.18281,-0.004 -0.66146,-0.33456 -0.66145,-0.33456 -0.0695,-9.45112 -0.0695,-9.45113 h 2.91376 2.91376 v 1.05834 1.05833 h -1.71979 -1.7198 v 3.175 3.175 h 1.45521 1.45521 v 1.19063 1.19062 h -1.45521 -1.45521 v 3.175 3.175 h 1.7198 1.71979 v 1.19063 1.19062 z m -16.99947,-10.78626 -0.79375,0.13104 -0.99044,-0.25256 -0.99043,-0.25256 -0.66322,-0.78818 -0.66321,-0.78818 v -2.5197 -2.5197 l 0.87872,-0.87871 0.87872,-0.87872 1.00579,-0.18869 1.00579,-0.18869 1.22434,0.5033 1.22435,0.5033 0.46261,0.92129 0.46261,0.9213 4.1e-4,1.81209 4.1e-4,1.8121 -0.40115,0.84536 -0.40115,0.84536 -0.72333,0.41476 -0.72332,0.41475 z m -0.62745,-1.90984 h 0.72194 l 0.41577,-0.41577 0.41578,-0.41578 v -1.58599 -1.586 l -0.2739,-0.51177 -0.27389,-0.51177 h -0.86381 -0.86382 l -0.3175,0.3175 -0.3175,0.3175 v 1.87854 1.87854 l 0.3175,0.3175 0.3175,0.3175 z"
         id="path16" /><path
         style="fill:#6574b0"
         d="m 112.84791,141.21812 -0.93017,-9.9e-4 -0.84706,-0.51647 -0.84705,-0.51648 -0.40972,-0.79231 -0.40972,-0.79231 v -1.99752 -1.99751 h 1.1795 1.17949 l 0.0773,2.05052 0.0773,2.05052 0.7436,0.0853 0.7436,0.0853 0.38088,-0.3161 0.38087,-0.3161 v -1.76081 -1.76082 l -0.44501,-0.65418 -0.44501,-0.65419 -1.4875,-1.60788 -1.4875,-1.60789 -0.44874,-0.94564 -0.44874,-0.94564 9.9e-4,-2.20897 9.9e-4,-2.20898 0.49694,-0.81492 0.49694,-0.81493 0.99215,-0.4708 0.99215,-0.47081 0.95111,0.15435 0.95112,0.15434 0.66766,0.48874 0.66766,0.48873 0.46261,0.90724 0.46261,0.90723 4.1e-4,1.78594 4.1e-4,1.78593 h -1.19062 -1.19063 v -1.60489 -1.60489 l -0.27389,-0.51178 -0.27389,-0.51177 h -0.59923 -0.59924 l -0.3175,0.3175 -0.3175,0.3175 v 1.92128 1.92128 l 1.84598,2.0607 1.84598,2.0607 0.46109,0.92604 0.46108,0.92604 0.0889,2.11667 0.0889,2.11667 -0.49818,0.9056 -0.49817,0.90559 -0.90147,0.48347 -0.90148,0.48346 z m 8.92555,-0.003 -2.18281,-0.004 -0.66146,-0.33456 -0.66145,-0.33456 -0.0695,-9.45112 -0.0695,-9.45113 h 2.91376 2.91376 v 1.05834 1.05833 h -1.71979 -1.7198 v 3.175 3.175 h 1.45521 1.45521 v 1.19063 1.19062 h -1.45521 -1.45521 v 3.175 3.175 h 1.7198 1.71979 v 1.19063 1.19062 z"
         id="path15" /><path
         style="fill:#696fab"
         d="m 121.77346,141.21521 -2.18281,-0.004 -0.66146,-0.33456 -0.66145,-0.33456 -0.0695,-9.45112 -0.0695,-9.45113 h 2.91376 2.91376 v 1.04625 1.04624 l -1.78594,0.0782 -1.78594,0.0782 -0.0745,3.10886 -0.0745,3.10885 h 1.4636 1.46361 v 1.1768 1.1768 l -1.38907,0.08 -1.38906,0.08 -0.0776,2.51354 -0.0776,2.51355 0.14876,0.59531 0.14876,0.59531 h 1.71475 1.71475 v 1.19063 1.19062 z"
         id="path14" /></g></g></svg>
